{"title":"Highlander 1986 Director's Cut.1080p.BluRay 5.1.x264 . NVEE","uid":13144174,"size":2780544328,"categoryP":"video","categoryS":"hd___movies","magnet":"?xt=urn:btih:e59978caeed41470add6669a453adbc0bb3b55a5&amp;dn=Highlander+1986+Director%27s+Cut.1080p.BluRay+5.1.x264+.+NVEE&amp;tr=udp%3A%2F%2Ftracker.leechers-paradise.org%3A6969&amp;tr=udp%3A%2F%2Fzer0day.ch%3A1337&amp;tr=udp%3A%2F%2Fopen.demonii.com%3A1337&amp;tr=udp%3A%2F%2Ftracker.coppersurfer.tk%3A6969&amp;tr=udp%3A%2F%2Fexodus.desync.com%3A6969","seeders":8,"leechers":4,"uploader":".NVEE","files":1,"time":1452008090,"description":"Quick note : \r\n\r\nYou require a torrent release I have posted in the past, not seeding,... \r\nPlease do not hesitate to inform me in any means you find fit to do so. \r\nTorrent requests also &quot;Always Welcome.&quot; \r\n\r\n \r\nFULL_INFOs \r\n\r\n99.99% &gt;&gt;&gt; SYNCED GUARANTEED \r\n\r\n&quot;Totally scrutinized / analyzed to be a verified torrent.&quot; \r\n___________________________________________ \r\n\r\nSource : Blu-ray ~ 1080p \r\n\r\n \r\n\r\nSpoken Language : English \r\n\r\nAudio : 6 ~ Channels Only \r\n\r\n \r\nSubs Info : \r\n\r\nN/A ~ Multisubs .srt \r\n\r\nAll .srt UTF-8 .idx &amp; .ass subs can be turned On/Off \r\n_____________________________________ \r\n--------------------------------------------------------------------------------- \r\n \r\nGeneral Metadata \r\n\r\nComplete name : Highlander 1986.Director's Cut.1080p.BluRay.5.1.x264 . NVEE.mp4 \r\nFormat : MPEG-4 \r\nFormat profile : Base Media \r\nCodec ID : isom \r\nFile size : 2.59 GiB \r\nDuration : 1h 56mn \r\nOverall bit rate : 3 178 Kbps \r\nEncoded date : UTC 2016-01-05 01:31:21 \r\nTagged date : UTC 2016-01-05 01:31:21 \r\n\r\n \r\nVideo \r\n\r\nID : 1 \r\nFormat : AVC \r\nFormat/Info : Advanced Video Codec \r\nFormat profile :    \r\nFormat settings, CABAC : Yes \r\nFormat settings, ReFrames : 5 frames \r\nCodec ID : avc1 \r\nCodec ID/Info : Advanced Video Coding \r\nDuration : 1h 56mn \r\nBit rate : 2 536 Kbps \r\nMaximum bit rate : 18.6 Mbps \r\nWidth : 1 920 pixels \r\nHeight : 1 080 pixels \r\nDisplay aspect ratio : 16:9 \r\nFrame rate mode : Constant \r\nFrame rate : 24.000 fps \r\nColor space : YUV \r\nChroma subsampling : 4:2:0 \r\nBit depth : 8 bits \r\nScan type : Progressive \r\nBits/(Pixel*Frame) : 0.051 \r\nStream size : 2.07 GiB (80%) \r\nWriting library : x264 core 148 r2638 7599210 \r\n\r\nEncoded from Physical Blu-ray / Region A \r\n\r\n \r\nAudio \r\n\r\nID : 2 \r\nFormat : AC-3 \r\nFormat/Info : Audio Coding 3 \r\nMode extension : CM (complete main) \r\nFormat settings, Endianness : Big \r\nCodec ID : ac-3 \r\nDuration : 1h 56mn \r\nBit rate mode : Constant \r\nBit rate : 640 Kbps \r\nMaximum bit rate : 676 Kbps \r\nChannel(s) : 6 channels \r\nChannel positions : Front: L C R, Side: L R, LFE \r\nSampling rate : 48.0 KHz \r\nBit depth : 16 bits \r\nCompression mode : Lossy \r\nStream size : 534 MiB (20%) \r\nLanguage : English \r\nEncoded date : UTC 2016-01-05 01:33:37 \r\nTagged date : UTC 2016-01-05 01:34:09 \r\n\r\nEncoded from Physical Blu-ray 6 Channel audio &quot;Only&quot;. \r\n\r\n \r\n\r\n \r\n\r\n \r\n\r\n\r\n\r\n\r\nEnj0y !","torrent":{"xt":"urn:btih:e59978caeed41470add6669a453adbc0bb3b55a5","amp;dn":"Highlander+1986+Director%27s+Cut.1080p.BluRay+5.1.x264+.+NVEE","amp;tr":["udp%3A%2F%2Ftracker.leechers-paradise.org%3A6969","udp%3A%2F%2Fzer0day.ch%3A1337","udp%3A%2F%2Fopen.demonii.com%3A1337","udp%3A%2F%2Ftracker.coppersurfer.tk%3A6969","udp%3A%2F%2Fexodus.desync.com%3A6969"],"infoHash":"e59978caeed41470add6669a453adbc0bb3b55a5","infoHashBuffer":{"type":"Buffer","data":[229,153,120,202,238,212,20,112,173,214,102,154,69,58,219,192,187,59,85,165]},"announce":[],"urlList":[]}}